<svg xmlns="http://www.w3.org/2000/svg" viewBox="0 0 32 32" fill="none">
  <!-- Background circle -->
  <circle cx="16" cy="16" r="16" fill="#1B2A4A"/>

  <!-- Quill feather body -->
  <path
    d="M22 5 C18 7 12 12 10 20 C11 20 12 19.5 13 19 C14 15 17 10 22 5 Z"
    fill="#F8F4E8"
    opacity="0.95"
  />
  <!-- Feather barbs -->
  <path
    d="M22 5 C20 8 16 11 13 14 M22 5 C19 9 15 13 12 17"
    stroke="#F8F4E8"
    stroke-width="0.6"
    stroke-linecap="round"
    opacity="0.5"
  />

  <!-- Quill nib/tip -->
  <path
    d="M10 20 C10.5 21.5 11 22.5 10.5 24 C9.8 23 9.5 21.5 10 20 Z"
    fill="#B8860B"
  />

  <!-- Ink line / pen stroke -->
  <path
    d="M10.5 24 C12 25.5 15 26.5 19 26"
    stroke="#B8860B"
    stroke-width="1.2"
    stroke-linecap="round"
    fill="none"
  />

  <!-- Gold accent bar at tip -->
  <path
    d="M10 20 L11.5 21.5"
    stroke="#B8860B"
    stroke-width="1.5"
    stroke-linecap="round"
  />
</svg>
